HIERARCHY
ROOT hip
{
  OFFSET 0 0 0
  CHANNELS 6 Xposition Yposition Zposition Zrotation Yrotation Xrotation
  JOINT abdomen
  {
    OFFSET 0 20.6881 -0.73152
    CHANNELS 3 Zrotation Xrotation Yrotation
    JOINT chest
    {
      OFFSET 0 11.7043 -0.48768
      CHANNELS 3 Zrotation Xrotation Yrotation
      JOINT neck
      {
        OFFSET 0 22.1894 -2.19456
        CHANNELS 3 Zrotation Xrotation Yrotation
        JOINT head
        {
          OFFSET -0.24384 7.07133 1.2192
          CHANNELS 3 Zrotation Xrotation Yrotation
          JOINT leftEye
          {
            OFFSET 4.14528 8.04674 8.04672
            CHANNELS 3 Zrotation Xrotation Yrotation
            End Site
            {
              OFFSET 1 0 0
            }
          }
          JOINT rightEye
          {
            OFFSET -3.6576 8.04674 8.04672
            CHANNELS 3 Zrotation Xrotation Yrotation
            End Site
            {
              OFFSET 1 0 0
            }
          }
        }
      }
      JOINT rCollar
      {
        OFFSET -2.68224 19.2634 -4.8768
        CHANNELS 3 Zrotation Xrotation Yrotation
        JOINT rShldr
        {
          OFFSET -8.77824 -1.95073 1.46304
          CHANNELS 3 Zrotation Xrotation Yrotation
          JOINT rForeArm
          {
            OFFSET -28.1742 -1.7115 0.48768
            CHANNELS 3 Zrotation Xrotation Yrotation
            JOINT rHand
            {
              OFFSET -22.5879 0.773209 7.07136
              CHANNELS 3 Zrotation Xrotation Yrotation
              JOINT rThumb1
              {
                OFFSET -1.2192 -0.487915 3.41376
                CHANNELS 3 Zrotation Xrotation Yrotation
                JOINT rThumb2
                {
                  OFFSET -3.37035 -0.52449 3.41376
                  CHANNELS 3 Zrotation Xrotation Yrotation
                  End Site
                  {
                    OFFSET -1.78271 -1.18214 1.43049
                  }
                }
              }
              JOINT rIndex1
              {
                OFFSET -7.75947 0.938293 5.60832
                CHANNELS 3 Zrotation Xrotation Yrotation
                JOINT rIndex2
                {
                  OFFSET -2.54057 -0.884171 1.56538
                  CHANNELS 3 Zrotation Xrotation Yrotation
                  End Site
                  {
                    OFFSET -1.62519 -0.234802 1.16502
                  }
                }
              }
              JOINT rMid1
              {
                OFFSET -8.24714 1.18213 3.41376
                CHANNELS 3 Zrotation Xrotation Yrotation
                JOINT rMid2
                {
                  OFFSET -3.10165 -0.590103 1.0647
                  CHANNELS 3 Zrotation Xrotation Yrotation
                  End Site
                  {
                    OFFSET -2.48547 -0.328903 0.83742
                  }
                }
              }
              JOINT rRing1
              {
                OFFSET -8.82822 0.546677 1.51678
                CHANNELS 3 Zrotation Xrotation Yrotation
                JOINT rRing2
                {
                  OFFSET -2.60934 -0.819778 -0.0198488
                  CHANNELS 3 Zrotation Xrotation Yrotation
                  End Site
                  {
                    OFFSET -2.33842 -0.294052 0.168128
                  }
                }
              }
              JOINT rPinky1
              {
                OFFSET -8.27202 -0.0477905 -0.4584
                CHANNELS 3 Zrotation Xrotation Yrotation
                JOINT rPinky2
                {
                  OFFSET -1.82734 -0.647385 -0.700984
                  CHANNELS 3 Zrotation Xrotation Yrotation
                  End Site
                  {
                    OFFSET -1.69225 -0.51767 -0.607171
                  }
                }
              }
            }
          }
        }
      }
      JOINT lCollar
      {
        OFFSET 2.68224 19.2634 -4.8768
        CHANNELS 3 Zrotation Xrotation Yrotation
        JOINT lShldr
        {
          OFFSET 8.77824 -1.95073 1.46304
          CHANNELS 3 Zrotation Xrotation Yrotation
          JOINT lForeArm
          {
            OFFSET 28.1742 -1.7115 0.48768
            CHANNELS 3 Zrotation Xrotation Yrotation
            JOINT lHand
            {
              OFFSET 22.5879 0.773209 7.07136
              CHANNELS 3 Zrotation Xrotation Yrotation
              JOINT lThumb1
              {
                OFFSET 1.2192 -0.487915 3.41376
                CHANNELS 3 Zrotation Xrotation Yrotation
                JOINT lThumb2
                {
                  OFFSET 3.37035 -0.52449 3.41376
                  CHANNELS 3 Zrotation Xrotation Yrotation
                  End Site
                  {
                    OFFSET 1.78271 -1.18214 1.43049
                  }
                }
              }
              JOINT lIndex1
              {
                OFFSET 7.75947 0.938293 5.60832
                CHANNELS 3 Zrotation Xrotation Yrotation
                JOINT lIndex2
                {
                  OFFSET 2.54057 -0.884171 1.56538
                  CHANNELS 3 Zrotation Xrotation Yrotation
                  End Site
                  {
                    OFFSET 1.62519 -0.234802 1.16502
                  }
                }
              }
              JOINT lMid1
              {
                OFFSET 8.24714 1.18213 3.41376
                CHANNELS 3 Zrotation Xrotation Yrotation
                JOINT lMid2
                {
                  OFFSET 3.10165 -0.590103 1.0647
                  CHANNELS 3 Zrotation Xrotation Yrotation
                  End Site
                  {
                    OFFSET 2.48547 -0.328903 0.83742
                  }
                }
              }
              JOINT lRing1
              {
                OFFSET 8.82822 0.546677 1.51678
                CHANNELS 3 Zrotation Xrotation Yrotation
                JOINT lRing2
                {
                  OFFSET 2.60934 -0.819778 -0.0198488
                  CHANNELS 3 Zrotation Xrotation Yrotation
                  End Site
                  {
                    OFFSET 2.33842 -0.294052 0.168128
                  }
                }
              }
              JOINT lPinky1
              {
                OFFSET 8.27202 -0.0477905 -0.4584
                CHANNELS 3 Zrotation Xrotation Yrotation
                JOINT lPinky2
                {
                  OFFSET 1.82734 -0.647385 -0.700984
                  CHANNELS 3 Zrotation Xrotation Yrotation
                  End Site
                  {
                    OFFSET 1.69225 -0.51767 -0.607171
                  }
                }
              }
            }
          }
        }
      }
    }
  }
  JOINT rButtock
  {
    OFFSET -8.77824 4.35084 1.2192
    CHANNELS 3 Zrotation Xrotation Yrotation
    JOINT rThigh
    {
      OFFSET 0 -1.70687 -2.19456
      CHANNELS 3 Zrotation Xrotation Yrotation
      JOINT rShin
      {
        OFFSET 0 -36.8199 0.73152
        CHANNELS 3 Zrotation Xrotation Yrotation
        JOINT rFoot
        {
          OFFSET 0.73152 -45.1104 -5.12064
          CHANNELS 3 Zrotation Xrotation Yrotation
          End Site
          {
            OFFSET -1.1221 -3.69964 12.103
          }
        }
      }
    }
  }
  JOINT lButtock
  {
    OFFSET 8.77824 4.35084 1.2192
    CHANNELS 3 Zrotation Xrotation Yrotation
    JOINT lThigh
    {
      OFFSET 0 -1.70687 -2.19456
      CHANNELS 3 Zrotation Xrotation Yrotation
      JOINT lShin
      {
        OFFSET 0 -36.8199 0.73152
        CHANNELS 3 Zrotation Xrotation Yrotation
        JOINT lFoot
        {
          OFFSET -0.73152 -45.1104 -5.12064
          CHANNELS 3 Zrotation Xrotation Yrotation
          End Site
          {
            OFFSET 1.1221 -3.69964 12.103
          }
        }
      }
    }
  }
}
MOTION
Frames:	5
Frame Time:	0.00833333
-2.55534 83.5688 10.5138 0.0 0.0 0.0 -2.45636 6.56729e-06 -0.0664199 -0.677101 0.0109128 -0.117187 3.1105e-14 1.59028e-15 -5.96354e-16 9.3932e-14 9.54166e-15 -1.94281e-15 -0.0 0.0 0.0 -0.0 0.0 0.0 1.60019e-14 9.84217e-17 -2.48481e-16 3.27231e-13 2.168e-15 -4.77083e-15 5.59981e-12 -1.59763e-12 -2.00375e-13 6.40514e-11 2.06783e-12 -1.23087e-12 1.5109e-10 1.01828e-12 -3.11376e-12 2.60924e-10 1.75567e-12 -5.40376e-12 1.51096e-10 1.02016e-12 -3.12649e-12 7.73091 5.47488 0.417314 1.5109e-10 1.01818e-12 -3.12012e-12 2.90554 0.965183 0.102902 1.51101e-10 1.01827e-12 -3.12251e-12 10.2786 0.731801 0.0259123 1.51088e-10 1.01977e-12 -3.1233e-12 2.22167 -0.733487 -0.20892 1.60034e-14 1.00557e-16 -3.47873e-16 3.22986e-13 1.97542e-15 -7.35503e-15 5.59961e-12 1.74215e-12 -1.52667e-13 6.40579e-11 -1.28258e-12 -1.28812e-12 1.5111e-10 9.97625e-13 -3.13603e-12 2.60962e-10 1.7175e-12 -5.39661e-12 1.51105e-10 9.97501e-13 -3.12012e-12 -7.73091 5.47488 -0.417314 1.5111e-10 9.97402e-13 -3.12967e-12 -2.90554 0.965183 -0.102902 1.511e-10 9.97998e-13 -3.12251e-12 -10.2786 0.731801 -0.0259123 1.51113e-10 9.99092e-13 -3.12649e-12 -2.22167 -0.733487 0.20892 -2.03217e-16 0.0 -3.88251e-19 -1.38439 -1.93007 0.00585094 -0.00880791 -2.07862 -0.0724779 -0.480348 3.99895 0.135642 2.03217e-16 0.0 3.88251e-19 -2.35085 -8.19058 0.245982 -0.00624564 9.26111 -0.15999 0.527636 -1.08018 -0.0374462
-2.23877 82.2023 5.34325 -132.361 87.3945 -114.396 -2.76787 1.07728 -1.87691 -0.107869 -0.905634 -0.590678 -1.77609 1.11762 -1.15307 2.39894 3.18053 -1.72766 -0.0 0.0 0.0 -0.0 0.0 0.0 -3.04921e-14 1.72559e-13 -3.03811e-14 14.0401 17.538 -3.25894 -25.6419 -23.3935 14.2266 0.139745 -8.31365 -1.12457 -8.78071e-10 -3.87823e-10 -1.86617e-09 -1.4688e-09 -6.85826e-10 -3.24987e-09 -8.78066e-10 -3.87819e-10 -1.86618e-09 7.73091 5.47488 0.417314 -8.7807e-10 -3.8782e-10 -1.86617e-09 2.90554 0.965183 0.102902 -8.7806e-10 -3.8782e-10 -1.86617e-09 10.2786 0.731801 0.0259123 -8.78071e-10 -3.87819e-10 -1.86617e-09 2.22167 -0.733487 -0.20892 -3.05415e-14 1.7256e-13 -3.04917e-14 -18.3097 8.87381 5.25095 26.1258 -23.8259 -14.0627 -0.164337 -9.01456 1.21105 1.53727e-09 -5.55758e-11 2.24957e-09 2.59691e-09 -8.65491e-11 3.91937e-09 1.53727e-09 -5.55751e-11 2.24959e-09 -7.73091 5.47488 -0.417314 1.53727e-09 -5.55757e-11 2.24957e-09 -2.90554 0.965183 -0.102902 1.53726e-09 -5.55752e-11 2.24958e-09 -10.2786 0.731801 -0.0259123 1.53727e-09 -5.55732e-11 2.24958e-09 -2.22167 -0.733487 0.20892 -2.03217e-16 0.0 -3.88251e-19 -1.98505 -8.35646 2.61439 -0.022995 2.14972 0.00698524 -0.708015 1.70023 -4.25713 2.03217e-16 0.0 3.88251e-19 0.434779 -13.0984 -7.12344 -0.00704019 10.5982 -0.205782 0.873832 -3.43871 9.03641
-2.44675 82.1925 5.42506 -130.664 87.4274 -112.438 -3.02653 2.16875 -3.79771 0.484573 -1.8817 -1.0929 -3.60892 2.30545 -2.37415 5.15444 6.49594 -3.57481 -0.0 0.0 0.0 -0.0 0.0 0.0 -8.29995e-14 3.72121e-13 -6.43596e-14 31.5137 35.8654 -7.88573 -36.7475 -42.7129 37.8811 -0.0820073 -17.0571 -2.39018 -2.04341e-09 -8.28126e-10 -3.98101e-09 -3.42712e-09 -1.46444e-09 -6.9329e-09 -2.04341e-09 -8.28119e-10 -3.98102e-09 7.73091 5.47488 0.417314 -2.04341e-09 -8.28119e-10 -3.98101e-09 2.90554 0.965183 0.102902 -2.0434e-09 -8.28118e-10 -3.98101e-09 10.2786 0.731801 0.0259123 -2.04341e-09 -8.28118e-10 -3.98101e-09 2.22167 -0.733487 -0.20892 -8.3103e-14 3.72122e-13 -6.44808e-14 -39.5191 17.9833 11.2125 37.3926 -43.5882 -37.9059 0.096644 -18.5126 2.59267 3.10733e-09 -1.17696e-10 4.80137e-09 5.24265e-09 -1.83146e-10 8.36523e-09 3.10733e-09 -1.17694e-10 4.80139e-09 -7.73091 5.47488 -0.417314 3.10733e-09 -1.17696e-10 4.80137e-09 -2.90554 0.965183 -0.102902 3.10733e-09 -1.17695e-10 4.80138e-09 -10.2786 0.731801 -0.0259123 3.10734e-09 -1.17692e-10 4.80137e-09 -2.22167 -0.733487 0.20892 -2.03217e-16 0.0 -3.88251e-19 -1.97097 -15.0934 5.50746 -0.0507802 6.62629 0.0920082 -1.33189 -0.718782 -8.90022 2.03217e-16 0.0 3.88251e-19 1.94889 -17.8608 -15.2839 -0.00550654 12.0032 -0.254445 2.03797 -5.7019 18.6912
-2.66791 82.187 5.51928 -128.495 87.4512 -110.011 -3.1867 3.21869 -5.5056 0.98511 -2.73788 -1.5392 -5.19322 3.34743 -3.46446 7.77818 9.50664 -5.24727 -0.0 0.0 0.0 -0.0 0.0 0.0 -1.2348e-13 5.17479e-13 -9.06462e-14 51.1727 51.712 -15.1545 -31.213 -47.6146 69.3415 -0.644441 -24.9005 -3.68084 -2.93639e-09 -1.16551e-09 -5.59227e-09 -4.92824e-09 -2.06099e-09 -9.7388e-09 -2.93639e-09 -1.1655e-09 -5.59228e-09 7.73091 5.47488 0.417314 -2.93639e-09 -1.1655e-09 -5.59227e-09 2.90554 0.965183 0.102902 -2.93638e-09 -1.1655e-09 -5.59227e-09 10.2786 0.731801 0.0259123 -2.93639e-09 -1.1655e-09 -5.59227e-09 2.22167 -0.733487 -0.20892 -1.23631e-13 5.17479e-13 -9.07794e-14 -60.1882 25.6785 17.3203 31.2435 -48.5743 -70.2946 0.768051 -26.9923 4.02761 4.30959e-09 -1.68723e-10 6.75498e-09 7.2688e-09 -2.63082e-10 1.17689e-08 4.30959e-09 -1.6872e-10 6.755e-09 -7.73091 5.47488 -0.417314 4.30959e-09 -1.68722e-10 6.75498e-09 -2.90554 0.965183 -0.102902 4.30959e-09 -1.68722e-10 6.75498e-09 -10.2786 0.731801 -0.0259123 4.3096e-09 -1.68718e-10 6.75498e-09 -2.22167 -0.733487 0.20892 -2.03217e-16 0.0 -3.88251e-19 -1.32777 -21.0319 8.30495 -0.086889 10.6064 0.168683 -2.21277 -2.80878 -13.0524 2.03217e-16 0.0 3.88251e-19 2.09047 -21.5412 -22.9857 -0.00203345 13.2724 -0.298991 3.72492 -7.36783 27.3796
-2.8328 82.1835 5.58184 -130.134 87.4115 -111.506 -3.23233 4.17619 -6.6753 1.28877 -3.29515 -1.84419 -6.2532 4.03007 -4.22266 9.66987 11.7882 -6.42514 -0.0 0.0 0.0 -0.0 0.0 0.0 -1.33894e-13 5.27325e-13 -9.77027e-14 70.012 62.0274 -24.9582 -27.5567 -42.3073 88.1657 -1.2983 -30.5308 -4.75452 -3.14846e-09 -1.24558e-09 -5.94458e-09 -5.28633e-09 -2.20238e-09 -1.03519e-08 -3.14846e-09 -1.24557e-09 -5.94458e-09 7.73091 5.47488 0.417314 -3.14846e-09 -1.24557e-09 -5.94458e-09 2.90554 0.965183 0.102902 -3.14845e-09 -1.24557e-09 -5.94458e-09 10.2786 0.731801 0.0259123 -3.14846e-09 -1.24557e-09 -5.94457e-09 2.22167 -0.733487 -0.20892 -1.34076e-13 5.27325e-13 -9.78518e-14 -75.701 30.7144 22.3211 27.3336 -43.0516 -89.588 1.54927 -32.9738 5.23133 4.59236e-09 -1.92015e-10 7.21311e-09 7.74595e-09 -3.01367e-10 1.25672e-08 4.59235e-09 -1.92012e-10 7.21312e-09 -7.73091 5.47488 -0.417314 4.59236e-09 -1.92014e-10 7.2131e-09 -2.90554 0.965183 -0.102902 4.59236e-09 -1.92014e-10 7.21311e-09 -10.2786 0.731801 -0.0259123 4.59236e-09 -1.9201e-10 7.2131e-09 -2.22167 -0.733487 0.20892 -2.03217e-16 0.0 -3.88251e-19 -0.456545 -25.14 10.4292 -0.118188 13.3453 0.221169 -2.99221 -4.17991 -15.9484 2.03217e-16 0.0 3.88251e-19 1.56459 -23.7314 -28.6137 0.0017422 14.2023 -0.332062 5.23837 -8.26986 33.4782
